<svg xmlns="http://www.w3.org/2000/svg" viewBox="0 0 1024 1024">
  <path d="M809.166 588l-56.378 30.382 58.913 30.222-300.154 156.803-299.074-156.803 58.72-30.222L214.533 588 120 637.633v22.037L511.518 865 904 659.67v-22.037z"/>
  <path d="M809.166 451l-56.378 30.382 58.913 30.222-300.154 156.803-299.074-156.803 58.72-30.222L214.533 451 120 500.633v22.037L511.518 728 904 522.67v-22.037z"/>
  <path d="M511.536 158L904 363.62v21.836L511.652 591 120 385.456l.036-21.837L511.536 158zM212.389 374.5l299.178 156.974L811.794 374.5 511.566 217.603 212.389 374.5z"/>
</svg>
