<svg width="26" height="26" xmlns="http://www.w3.org/2000/svg"><path d="M12.533 16.48c.975 0 1.76.784 1.76 1.76 0 .974-.785 1.76-1.76 1.76-.976 0-1.76-.786-1.76-1.76 0-.976.784-1.76 1.76-1.76zM11.1 14.568c0-.765.192-1.264.67-1.72 1.413-1.359 2.447-1.992 2.447-2.871 0-.84-.593-1.338-1.378-1.338-1.185 0-1.815.765-1.892 1.703L8 10.149C8.268 7.452 10.122 6 12.781 6c2.335 0 4.304 1.3 4.304 3.767 0 1.454-.554 2.334-2.372 3.768-.593.458-.746.9-.746 1.319v.555H11.1v-.841z" fill="#000" fill-rule="evenodd"/></svg>