<svg version="1.1" id="ConstructionFiles_svg__Layer_1" xmlns="http://www.w3.org/2000/svg" x="0" y="0" viewBox="0 0 1024 1024" xml:space="preserve"><style></style><path d="M308.2 577.3c-.1 2.2-.1 4.4-.1 6.6 0 110.9 89.9 200.8 200.8 200.8s200.8-89.9 200.8-200.8c0-2.2 0-4.4-.1-6.6H308.2zM730.7 473.8h-9.2c0-1.8.1-3.6.1-5.5 0-72.3-36.1-136.1-91.2-174.6l-22.2 107.7c-1.5 7.4-8.9 12.2-16.3 10.7s-12.2-8.9-10.7-16.3l24.1-117.1c-11.2-5.7-23-10.5-35.2-14.1.3-1.4.5-2.8.5-4.2v-3.8c0-10.5-8.6-19.1-19.1-19.1h-85.4c-10.5 0-19.1 8.6-19.1 19.1v3.8c0 1.4.2 2.9.5 4.2-12.2 3.7-24 8.4-35.2 14.1l24.1 117.1c1.5 7.4-3.3 14.7-10.7 16.3-7.4 1.5-14.7-3.3-16.3-10.7l-22.2-107.7C332.1 332.1 296 396 296 468.3c0 1.8 0 3.7.1 5.5H287c-17.5 0-31.9 14.4-31.9 31.9s14.4 31.9 31.9 31.9h443.7c17.5 0 31.9-14.4 31.9-31.9 0-17.6-14.3-31.9-31.9-31.9z"/></svg>